<svg width="16" height="17" viewBox="0 0 16 17" fill="none" xmlns="http://www.w3.org/2000/svg">
<path d="M4.35355 0.646447C4.15829 0.451184 3.84171 0.451184 3.64645 0.646447L0.464466 3.82843C0.269204 4.02369 0.269204 4.34027 0.464466 4.53553C0.659728 4.7308 0.976311 4.7308 1.17157 4.53553L4 1.70711L6.82843 4.53553C7.02369 4.7308 7.34027 4.7308 7.53553 4.53553C7.7308 4.34027 7.7308 4.02369 7.53553 3.82843L4.35355 0.646447ZM3.5 1V16H4.5V1H3.5Z" fill="white"/>
<path d="M11.6464 16.3536C11.8417 16.5488 12.1583 16.5488 12.3536 16.3536L15.5355 13.1716C15.7308 12.9763 15.7308 12.6597 15.5355 12.4645C15.3403 12.2692 15.0237 12.2692 14.8284 12.4645L12 15.2929L9.17157 12.4645C8.97631 12.2692 8.65973 12.2692 8.46447 12.4645C8.2692 12.6597 8.2692 12.9763 8.46447 13.1716L11.6464 16.3536ZM11.5 1V16H12.5V1H11.5Z" fill="white"/>
</svg>
